<svg width="16" height="30" viewBox="0 0 16 30" fill="none" xmlns="http://www.w3.org/2000/svg">
<path d="M7 1C7 0.447723 7.44769 0 8 0C8.55231 0 9 0.447723 9 1V26.5756L14.2806 21.295C14.6739 20.9017 15.3116 20.9017 15.705 21.295C16.0983 21.6884 16.0983 22.3261 15.705 22.7195L8.71942 29.705C8.52209 29.9023 8.26324 30.0006 8.00464 30H7.99536C7.73676 30.0006 7.47791 29.9023 7.28058 29.705L0.294983 22.7195C-0.0983276 22.3261 -0.0983276 21.6884 0.294983 21.295C0.688354 20.9017 1.32611 20.9017 1.71942 21.295L7 26.5756V1Z" fill="#FFEBB7"/>
</svg>
