<svg width="20" height="22" viewBox="0 0 20 22" fill="none" xmlns="http://www.w3.org/2000/svg">
<path d="M10 0.967896C4.5 0.967896 0 4.94597 0 9.91855C0 15.1895 5 19.3665 11 18.8692V21.9522L12.5 20.9577C13.6 20.2615 19.3 16.3829 19.9 10.9131C20 10.5153 20 10.2169 20 9.91855C20 4.94597 15.5 0.967896 10 0.967896ZM6 10.9131C5.4 10.9131 5 10.5153 5 9.91855C5 9.32184 5.4 8.92403 6 8.92403C6.6 8.92403 7 9.32184 7 9.91855C7 10.5153 6.6 10.9131 6 10.9131ZM10 10.9131C9.4 10.9131 9 10.5153 9 9.91855C9 9.32184 9.4 8.92403 10 8.92403C10.6 8.92403 11 9.32184 11 9.91855C11 10.5153 10.6 10.9131 10 10.9131ZM14 10.9131C13.4 10.9131 13 10.5153 13 9.91855C13 9.32184 13.4 8.92403 14 8.92403C14.6 8.92403 15 9.32184 15 9.91855C15 10.5153 14.6 10.9131 14 10.9131Z" fill="#F2AA3E"/>
</svg>
