<svg width="93" height="65" viewBox="0 0 93 65" fill="none" xmlns="http://www.w3.org/2000/svg">
<path d="M23.112 64.344C19.336 64.344 16.008 63.576 13.128 62.04C10.312 60.504 7.912 58.328 5.928 55.512C4.008 52.696 2.536 49.304 1.512 45.336C0.552 41.368 0.0720001 36.952 0.0720001 32.088C0.0720001 27.288 0.552 22.968 1.512 19.128C2.536 15.288 4.04 12.024 6.024 9.336C8.008 6.584 10.408 4.472 13.224 3C16.104 1.528 19.432 0.792 23.208 0.792C26.92 0.792 30.216 1.528 33.096 3C35.976 4.472 38.376 6.584 40.296 9.336C42.28 12.024 43.752 15.288 44.712 19.128C45.736 22.968 46.248 27.288 46.248 32.088C46.248 36.952 45.736 41.368 44.712 45.336C43.752 49.304 42.28 52.696 40.296 55.512C38.312 58.328 35.88 60.504 33 62.04C30.12 63.576 26.824 64.344 23.112 64.344ZM23.112 56.376C25.416 56.376 27.432 55.8 29.16 54.648C30.952 53.432 32.424 51.768 33.576 49.656C34.792 47.48 35.688 44.92 36.264 41.976C36.904 38.968 37.224 35.672 37.224 32.088C37.224 28.568 36.904 25.368 36.264 22.488C35.688 19.608 34.792 17.176 33.576 15.192C32.36 13.144 30.888 11.576 29.16 10.488C27.432 9.4 25.416 8.856 23.112 8.856C20.808 8.856 18.792 9.4 17.064 10.488C15.336 11.576 13.864 13.144 12.648 15.192C11.496 17.176 10.6 19.608 9.96 22.488C9.384 25.368 9.096 28.568 9.096 32.088C9.096 35.672 9.384 38.968 9.96 41.976C10.6 44.92 11.496 47.48 12.648 49.656C13.864 51.768 15.336 53.432 17.064 54.648C18.792 55.8 20.808 56.376 23.112 56.376ZM62.8485 55.32H73.6005V11.64L61.1205 18.36L57.5685 11.544L74.5605 2.232H82.3365V55.32H92.8965V63H62.8485V55.32Z" fill="#F2AA3E"/>
</svg>
