<svg width="24" height="14" viewBox="0 0 24 14" fill="none" xmlns="http://www.w3.org/2000/svg">
<path d="M1 8C0.447723 8 -2.81838e-07 7.55231 -3.0598e-07 7C-3.30122e-07 6.44769 0.447723 6 1 6L20.5756 6L16.295 1.71942C15.9017 1.32611 15.9017 0.688354 16.295 0.294982C16.6884 -0.0983284 17.3261 -0.0983284 17.7195 0.294982L23.705 6.28058C23.9023 6.4779 24.0006 6.73675 24 6.99536L24 7.00464C24.0006 7.26324 23.9023 7.52209 23.705 7.71942L17.7195 13.705C17.3261 14.0983 16.6884 14.0983 16.295 13.705C15.9017 13.3116 15.9017 12.6739 16.295 12.2806L20.5756 8L1 8Z" fill="white"/>
</svg>
