<svg width="90" height="90" viewBox="0 0 90 90" fill="none" xmlns="http://www.w3.org/2000/svg">
<rect x="11" y="11" width="68" height="68" rx="20" fill="white"/>
<rect x="64" y="42" width="9" height="2" rx="1" fill="#E8EAEF"/>
<rect x="60" y="48" width="13" height="2" rx="1" fill="#E8EAEF"/>
<rect x="47" y="55" width="26" height="2" rx="1" fill="#E8EAEF"/>
<rect x="21" y="62" width="48" height="2" rx="1" fill="#E8EAEF"/>
<rect x="28" y="69" width="34" height="2" rx="1" fill="#E8EAEF"/>
<g filter="url(#filter0_d)">
<path d="M13.3978 12.139C16.097 9.88847 19.2461 8.18805 22.6451 7.1878C24.7444 6.53763 26.8438 6.18755 29.0432 6.03751C30.0929 5.9875 31.1426 5.9875 32.2422 6.03751C33.6418 6.08752 34.9914 6.23756 36.391 6.48762C39.2901 6.98775 42.0893 8.03801 44.6885 9.48837C48.1375 11.3388 51.0367 14.0895 53.136 17.4404C55.8352 21.6914 56.685 26.8927 55.4354 31.7939C54.4357 35.845 52.1863 39.4959 48.9873 42.2466C44.9885 45.7474 40.0399 47.948 34.7415 48.5481C33.4919 48.5981 32.5421 49.6984 32.5921 50.9487C32.5921 50.9988 32.5921 51.0488 32.5921 51.0988C32.5921 51.899 32.7921 52.7492 32.892 53.5494C33.042 54.1495 33.092 54.7997 32.992 55.3999C32.992 55.7499 32.6921 56 32.3422 56H32.2922C31.7924 55.95 31.2925 55.7999 30.7927 55.5999C28.6433 54.5997 26.6439 53.3993 24.7444 51.999C20.5457 49.0483 16.6468 45.7975 12.9479 42.1966C11.6483 41.0463 10.4987 39.7459 9.49896 38.2956C7.24963 35.0948 6.04998 31.2938 6 27.4429C6 25.6924 6.24992 23.992 6.69979 22.3416C7.79947 18.3406 10.1988 14.7897 13.3978 12.139Z" fill="#91C63B"/>
</g>
<path d="M26.1851 35.888C25.7026 36.1242 25.1396 35.7306 25.22 35.2582L26.1851 29.9044L22.164 26.1252C21.8423 25.7316 22.0031 25.1017 22.5661 25.023L28.0348 24.2357L30.4475 19.3543C30.6888 18.8819 31.3322 18.8819 31.5735 19.3543L33.9862 24.2357L39.4549 25.023C40.0179 25.1017 40.1787 25.7316 39.7766 26.1252L35.8359 29.9044L36.801 35.2582C36.8814 35.8093 36.3184 36.2029 35.8359 35.888L30.9301 33.3686L26.1851 35.888Z" fill="white"/>
<defs>
<filter id="filter0_d" x="0" y="5" width="62" height="62" filterUnits="userSpaceOnUse" color-interpolation-filters="sRGB">
<feFlood flood-opacity="0" result="BackgroundImageFix"/>
<feColorMatrix in="SourceAlpha" type="matrix" values="0 0 0 0 0 0 0 0 0 0 0 0 0 0 0 0 0 0 127 0"/>
<feOffset dy="5"/>
<feGaussianBlur stdDeviation="3"/>
<feColorMatrix type="matrix" values="0 0 0 0 0.568627 0 0 0 0 0.776471 0 0 0 0 0.231373 0 0 0 0.25 0"/>
<feBlend mode="normal" in2="BackgroundImageFix" result="effect1_dropShadow"/>
<feBlend mode="normal" in="SourceGraphic" in2="effect1_dropShadow" result="shape"/>
</filter>
</defs>
</svg>
