<svg width="90" height="90" viewBox="0 0 90 90" fill="none" xmlns="http://www.w3.org/2000/svg">
<rect x="11" y="11" width="68" height="68" rx="24" fill="white"/>
<g opacity="0.3" filter="url(#filter0_f)">
<path d="M83 71C73 71 76.5 46 65.5 46C53.5 46 58.5 67 46 67C33.5 67 38 34.5 26.5 34.5C17 34.5 21 58 7 58" stroke="#E8EAEF" stroke-width="2"/>
</g>
<g filter="url(#filter1_d)">
<path fill-rule="evenodd" clip-rule="evenodd" d="M31 26C31 26.1108 30.9955 26.2206 30.9867 26.3291C32.0404 27.3337 32.8719 28.6765 33.5504 30.1629C34.9265 33.1781 35.8348 37.1212 36.7214 40.9699L36.8494 41.5251C37.7936 45.6169 38.7392 49.5556 40.1922 52.4765C40.9087 53.9168 41.7118 55.0414 42.6529 55.809C43.3675 54.7195 44.5997 54 46 54C47.548 54 48.8906 54.8794 49.5556 56.1658C50.462 55.6663 51.1988 54.9641 51.8328 54.1188C53.1979 52.2986 54.0741 49.8331 54.9922 47.1737L55.0717 46.9434C55.9395 44.4278 56.864 41.7476 58.3362 39.6979C59.0681 38.679 59.9405 37.8077 61.0034 37.1673C61.0012 37.1118 61 37.056 61 37C61 34.7909 62.7909 33 65 33C67.1728 33 68.9409 34.7324 68.9986 36.8912C70.3896 37.6796 71.4694 38.9311 72.3313 40.4002C73.7839 42.8763 74.7209 46.1338 75.588 49.2304L75.6984 49.6251C76.5435 52.647 77.3388 55.4907 78.4761 57.6232C79.6473 59.8192 81.0349 61 83 61C83.5523 61 84 61.4477 84 62C84 62.5523 83.5523 63 83 63C79.9651 63 78.0402 61.0558 76.7114 58.5643C75.4675 56.2321 74.6185 53.193 73.7991 50.2598L73.662 49.7696C72.7791 46.6162 71.9036 43.6237 70.6062 41.4123C69.9885 40.3593 69.3008 39.524 68.497 38.9435C67.8138 40.1702 66.5038 41 65 41C63.5822 41 62.3368 40.2624 61.6264 39.15C60.9895 39.6088 60.4454 40.1897 59.9606 40.8646C58.6618 42.673 57.8196 45.1126 56.908 47.7531L56.8828 47.8263C55.9884 50.4169 55.0208 53.2014 53.4328 55.3187C52.5214 56.534 51.4035 57.5335 49.9959 58.1828C49.9003 60.3071 48.1479 62 46 62C43.7909 62 42 60.2091 42 58C42 57.9381 42.0014 57.8765 42.0042 57.8153C40.4785 56.798 39.3168 55.2071 38.4015 53.3673C36.8233 50.1944 35.8314 46.0081 34.9006 41.9749L34.7958 41.5204C33.8878 37.5815 33.0202 33.8182 31.7309 30.9933C31.2583 29.9578 30.751 29.0942 30.1929 28.4098C29.4627 29.3758 28.3042 30 27 30C25.4786 30 24.1556 29.1506 23.4793 27.9002C23.0561 28.3682 22.6668 28.9508 22.2956 29.6439C21.3913 31.3329 20.704 33.4752 19.9536 35.8143C19.7701 36.3864 19.5824 36.9712 19.3872 37.5632C18.4191 40.4987 17.2651 43.5919 15.4016 45.9484C13.4926 48.3624 10.8409 50 7 50C6.44772 50 6 49.5523 6 49C6 48.4477 6.44772 48 7 48C10.1591 48 12.2574 46.7001 13.8328 44.7078C15.4537 42.6581 16.5184 39.8763 17.4878 36.9368C17.667 36.3935 17.8434 35.8426 18.0201 35.2908L18.0206 35.2895C18.7744 32.9355 19.5333 30.5658 20.5325 28.6998C21.1867 27.4781 21.9881 26.3899 23.0171 25.6275C23.205 23.593 24.9165 22 27 22C29.2091 22 31 23.7909 31 26ZM29 26C29 27.1046 28.1046 28 27 28C25.8954 28 25 27.1046 25 26C25 24.8954 25.8954 24 27 24C28.1046 24 29 24.8954 29 26ZM48 58C48 59.1046 47.1046 60 46 60C44.8954 60 44 59.1046 44 58C44 56.8954 44.8954 56 46 56C47.1046 56 48 56.8954 48 58ZM67 37C67 38.1046 66.1046 39 65 39C63.8954 39 63 38.1046 63 37C63 35.8954 63.8954 35 65 35C66.1046 35 67 35.8954 67 37Z" fill="#E8EAEF"/>
</g>
<defs>
<filter id="filter0_f" x="3" y="29.5" width="84" height="46.5" filterUnits="userSpaceOnUse" color-interpolation-filters="sRGB">
<feFlood flood-opacity="0" result="BackgroundImageFix"/>
<feBlend mode="normal" in="SourceGraphic" in2="BackgroundImageFix" result="shape"/>
<feGaussianBlur stdDeviation="2" result="effect1_foregroundBlur"/>
</filter>
<filter id="filter1_d" x="0" y="21" width="90" height="53" filterUnits="userSpaceOnUse" color-interpolation-filters="sRGB">
<feFlood flood-opacity="0" result="BackgroundImageFix"/>
<feColorMatrix in="SourceAlpha" type="matrix" values="0 0 0 0 0 0 0 0 0 0 0 0 0 0 0 0 0 0 127 0"/>
<feOffset dy="5"/>
<feGaussianBlur stdDeviation="3"/>
<feColorMatrix type="matrix" values="0 0 0 0 0.909804 0 0 0 0 0.917647 0 0 0 0 0.937255 0 0 0 0.25 0"/>
<feBlend mode="normal" in2="BackgroundImageFix" result="effect1_dropShadow"/>
<feBlend mode="normal" in="SourceGraphic" in2="effect1_dropShadow" result="shape"/>
</filter>
</defs>
</svg>
