<svg width="90" height="90" viewBox="0 0 90 90" fill="none" xmlns="http://www.w3.org/2000/svg">
<rect x="11" y="11" width="68" height="68" rx="24" fill="white"/>
<g opacity="0.2" filter="url(#filter0_f)">
<path d="M83 71C73 71 76.5 46 65.5 46C53.5 46 58.5 67 46 67C33.5 67 38 34.5 26.5 34.5C17 34.5 21 58 7 58" stroke="url(#paint0_linear)" stroke-width="2"/>
</g>
<path fill-rule="evenodd" clip-rule="evenodd" d="M30.9867 26.3291C30.9955 26.2206 31 26.1108 31 26C31 23.7909 29.2091 22 27 22C24.9165 22 23.205 23.593 23.0171 25.6275C21.9881 26.3899 21.1867 27.4781 20.5325 28.6998C19.5333 30.5658 18.7744 32.9355 18.0206 35.2895L18.0201 35.2908C17.8434 35.8426 17.667 36.3935 17.4878 36.9368C16.5184 39.8763 15.4537 42.6581 13.8328 44.7078C12.2574 46.7001 10.1591 48 7 48C6.44772 48 6 48.4477 6 49C6 49.5523 6.44772 50 7 50C10.8409 50 13.4926 48.3624 15.4016 45.9484C17.2651 43.5919 18.4191 40.4987 19.3872 37.5632C19.5825 36.9709 19.77 36.3866 19.9536 35.8143L19.9539 35.8133C20.7043 33.4742 21.3913 31.3329 22.2956 29.6439C22.6668 28.9508 23.0561 28.3682 23.4793 27.9002C24.1556 29.1506 25.4786 30 27 30C28.3042 30 29.4627 29.3758 30.1929 28.4098C30.751 29.0942 31.2583 29.9578 31.7309 30.9933C33.0202 33.8182 33.8878 37.5815 34.7958 41.5204L34.9006 41.9749C35.8314 46.0081 36.8233 50.1944 38.4015 53.3673C39.3168 55.2071 40.4785 56.798 42.0042 57.8153C42.0014 57.8765 42 57.9381 42 58C42 60.2091 43.7909 62 46 62C48.1479 62 49.9003 60.3071 49.9959 58.1828C51.4035 57.5335 52.5214 56.534 53.4328 55.3187C55.0208 53.2014 55.9884 50.4169 56.8828 47.8263L56.908 47.7531L56.9081 47.7531C57.8196 45.1126 58.6618 42.673 59.9606 40.8646C60.4454 40.1897 60.9895 39.6088 61.6264 39.15C62.3368 40.2624 63.5822 41 65 41C66.5038 41 67.8138 40.1702 68.497 38.9435C69.3008 39.524 69.9885 40.3593 70.6062 41.4123C71.9036 43.6237 72.7791 46.6162 73.662 49.7696L73.7991 50.2598C74.6185 53.193 75.4675 56.2321 76.7114 58.5643C78.0402 61.0558 79.9651 63 83 63C83.5523 63 84 62.5523 84 62C84 61.4477 83.5523 61 83 61C81.0349 61 79.6473 59.8192 78.4761 57.6232C77.3388 55.4907 76.5435 52.647 75.6984 49.6251L75.588 49.2304C74.7209 46.1338 73.7839 42.8763 72.3313 40.4002C71.4694 38.9311 70.3896 37.6796 68.9986 36.8912C68.9409 34.7324 67.1728 33 65 33C62.7909 33 61 34.7909 61 37C61 37.056 61.0012 37.1118 61.0034 37.1673C59.9405 37.8077 59.0681 38.679 58.3362 39.6979C56.864 41.7476 55.9395 44.4278 55.0717 46.9434L54.9922 47.1737C54.0741 49.8331 53.1979 52.2986 51.8328 54.1188C51.1988 54.9641 50.462 55.6663 49.5556 56.1658C48.8906 54.8794 47.548 54 46 54C44.5997 54 43.3675 54.7195 42.6529 55.809C41.7118 55.0414 40.9087 53.9168 40.1922 52.4765C38.7392 49.5556 37.7936 45.6169 36.8494 41.5251L36.7214 40.9699C35.8348 37.1212 34.9265 33.1781 33.5504 30.1629C32.8719 28.6765 32.0404 27.3337 30.9867 26.3291Z" fill="url(#paint1_linear)"/>
<path fill-rule="evenodd" clip-rule="evenodd" d="M29 26C29 27.1046 28.1046 28 27 28C25.8954 28 25 27.1046 25 26C25 24.8954 25.8954 24 27 24C28.1046 24 29 24.8954 29 26ZM48 58C48 59.1046 47.1046 60 46 60C44.8954 60 44 59.1046 44 58C44 56.8954 44.8954 56 46 56C47.1046 56 48 56.8954 48 58ZM65 39C66.1046 39 67 38.1046 67 37C67 35.8954 66.1046 35 65 35C63.8954 35 63 35.8954 63 37C63 38.1046 63.8954 39 65 39Z" fill="white"/>
<defs>
<filter id="filter0_f" x="3" y="29.5" width="84" height="46.5" filterUnits="userSpaceOnUse" color-interpolation-filters="sRGB">
<feFlood flood-opacity="0" result="BackgroundImageFix"/>
<feBlend mode="normal" in="SourceGraphic" in2="BackgroundImageFix" result="shape"/>
<feGaussianBlur stdDeviation="2" result="effect1_foregroundBlur"/>
</filter>
<linearGradient id="paint0_linear" x1="7" y1="35" x2="83" y2="71" gradientUnits="userSpaceOnUse">
<stop stop-color="#CD3841"/>
<stop offset="0.486188" stop-color="#F2AA3E"/>
<stop offset="1" stop-color="#91C63B"/>
</linearGradient>
<linearGradient id="paint1_linear" x1="7" y1="26" x2="83" y2="62" gradientUnits="userSpaceOnUse">
<stop stop-color="#CD3841"/>
<stop offset="0.486188" stop-color="#FFB648"/>
<stop offset="1" stop-color="#9EDC38"/>
</linearGradient>
</defs>
</svg>
